# xmcd CD database file
#
# Track frame offsets:
#	150
#	14972
#	34925
#	59228
#	80928
#	104918
#	122173
#	147103
#	166923
#	196440
#
# Disc length: 3158 seconds
#
# Revision: 0
# Processed by: cddbd v1.5.1PL0 Copyright (c) Steve Scherf et al.
# Submitted via: CDex 1.51
#
DISCID=a10c540a
DTITLE=Ruth Brown w/Red Holloway - Have a good time
DYEAR=1988
DGENRE=Blues
TTITLE0=Gee baby, ain't I good to you
TTITLE1=You won't let me go
TTITLE2=5-10-15 hours
TTITLE3=Have a good time
TTITLE4=Teardrops from my eyes
TTITLE5=Always on my mind
TTITLE6=Yes Sir, that's my baby
TTITLE7=When I fall in love
TTITLE8=(Mama) he treats your daughter mean
TTITLE9=What a wonderful world
EXTD=YEAR: 1988
EXTT0=
EXTT1=
EXTT2=
EXTT3=
EXTT4=
EXTT5=
EXTT6=
EXTT7=
EXTT8=
EXTT9=
PLAYORDER=
